<?xml version="1.0" standalone="no"?>
<!DOCTYPE svg PUBLIC "-//W3C//DTD SVG 20010904//EN"
 "http://www.w3.org/TR/2001/REC-SVG-20010904/DTD/svg10.dtd">
<svg version="1.0" xmlns="http://www.w3.org/2000/svg"
 width="1184.000000pt" height="864.000000pt" viewBox="0 0 1184.000000 864.000000"
 preserveAspectRatio="xMidYMid meet">

<g transform="translate(0.000000,864.000000) scale(0.100000,-0.100000)"
fill="#E0F2FE" stroke="none">
<path d="M5849 7501 c-47 -15 -74 -33 -147 -100 -41 -36 -99 -88 -130 -115
-32 -26 -73 -62 -92 -80 -107 -97 -1207 -1043 -1396 -1201 -183 -153 -482
-415 -506 -444 -32 -37 -42 -82 -36 -157 8 -99 84 -164 193 -164 70 0 103 15
172 80 105 98 206 181 217 177 8 -3 12 -178 16 -648 5 -589 7 -648 23 -689 34
-85 117 -151 213 -170 41 -8 213 -10 559 -8 485 3 501 4 546 24 58 27 110 79
140 140 l24 49 5 462 c5 456 5 463 26 484 21 20 31 21 239 23 l217 1 24 -28
24 -28 0 -438 c0 -361 3 -446 15 -488 19 -64 87 -142 152 -174 l48 -24 516 -3
c502 -3 518 -2 571 18 67 25 135 82 166 140 40 75 44 151 40 772 -2 322 0 590
4 594 8 7 74 -46 203 -165 93 -86 123 -101 203 -101 77 0 139 38 172 104 28
60 26 160 -6 203 -22 30 -163 154 -514 455 l-215 184 -5 514 c-6 572 -2 545
-74 608 -35 31 -90 52 -134 52 -50 0 -122 -42 -155 -89 l-32 -46 -3 -330 c-2
-181 -7 -334 -12 -339 -5 -5 -32 10 -63 35 -69 55 -788 673 -920 791 -54 49
-112 95 -129 104 -36 19 -122 27 -159 15z m92 -489 c15 -9 62 -49 105 -88 44
-39 95 -84 114 -100 38 -31 286 -244 385 -329 33 -29 188 -162 345 -295 157
-134 311 -266 343 -293 l57 -49 0 -734 c0 -688 -1 -734 -17 -742 -29 -15 -669
-9 -684 5 -10 10 -13 107 -14 395 -1 361 -3 387 -23 454 -49 159 -179 279
-340 313 -31 6 -156 11 -300 11 -269 0 -330 -8 -424 -56 -108 -55 -205 -187
-228 -313 -6 -30 -10 -219 -10 -427 0 -287 -3 -375 -12 -381 -16 -9 -680 -4
-690 6 -10 9 -11 1458 -1 1474 7 12 171 156 373 327 137 116 570 490 773 667
108 95 203 173 210 173 6 0 24 -8 38 -18z"/>
<path d="M2743 4495 c-96 -29 -189 -109 -235 -200 -48 -93 -60 -160 -59 -345
0 -177 12 -349 31 -450 88 -453 200 -758 394 -1074 269 -438 605 -751 1031
-961 738 -363 1476 -269 1754 226 146 261 129 665 -43 1007 -165 328 -407 566
-758 745 -156 80 -312 139 -463 175 -318 77 -519 68 -641 -29 -21 -16 -45 -28
-53 -27 -10 2 -62 94 -127 225 -174 346 -246 457 -378 580 -101 95 -219 143
-346 142 -36 0 -84 -6 -107 -14z m199 -427 c65 -70 152 -215 264 -440 152
-307 188 -376 246 -467 199 -318 396 -512 785 -774 124 -83 161 -95 247 -77
133 27 197 186 122 301 -18 26 -71 68 -169 134 -213 142 -374 270 -418 335
-44 63 -59 128 -39 166 12 21 20 24 74 24 164 -1 479 -101 681 -217 278 -160
502 -421 577 -671 115 -385 16 -621 -299 -708 -78 -22 -336 -31 -412 -15 -31
7 -87 19 -126 27 -166 36 -381 122 -530 214 -180 110 -398 300 -550 480 -223
263 -430 713 -499 1085 -50 272 -70 578 -41 625 13 21 57 9 87 -22z"/>
<path d="M8865 4499 c-81 -19 -189 -85 -264 -160 -115 -117 -200 -251 -364
-576 -56 -112 -107 -203 -114 -203 -7 0 -40 18 -73 40 -85 54 -147 70 -274 70
-76 0 -146 -8 -253 -29 -561 -112 -1008 -411 -1265 -847 -71 -120 -124 -249
-160 -384 -28 -104 -31 -130 -32 -275 -1 -176 10 -246 55 -358 89 -222 273
-387 522 -471 197 -66 505 -76 742 -24 317 70 650 226 930 437 125 95 324 287
422 409 406 505 643 1178 643 1828 0 184 -16 262 -74 362 -72 123 -175 184
-316 189 -47 1 -103 -2 -125 -8z m109 -421 c16 -79 10 -256 -14 -428 -56 -387
-177 -728 -372 -1041 -174 -278 -442 -538 -736 -713 -60 -35 -129 -73 -153
-84 -181 -82 -270 -110 -439 -142 -202 -39 -435 -18 -570 50 -223 113 -287
362 -175 685 101 292 356 560 673 707 242 113 610 193 652 143 17 -20 8 -82
-19 -139 -40 -82 -198 -217 -447 -381 -77 -52 -148 -105 -157 -118 -30 -47
-41 -112 -26 -164 14 -50 57 -106 98 -128 40 -20 113 -28 158 -16 41 11 168
96 373 249 132 99 358 320 443 435 86 115 191 296 307 532 148 302 245 470
313 543 38 39 84 45 91 10z"/>
</g>
</svg>
