<?xml version="1.0" standalone="no"?><!DOCTYPE svg PUBLIC "-//W3C//DTD SVG 1.1//EN" "http://www.w3.org/Graphics/SVG/1.1/DTD/svg11.dtd"><svg t="1770454349527" class="icon" viewBox="0 0 1024 1024" version="1.1" xmlns="http://www.w3.org/2000/svg" p-id="6412" xmlns:xlink="http://www.w3.org/1999/xlink" width="128" height="128"><path d="M514.5088 896.7168a81.6128 81.6128 0 0 1-58.1632-24.1152l-303.2064-303.2064A254.1568 254.1568 0 1 1 512.5632 209.92l1.9456 1.9456c97.28-96.5632 251.5968-101.5296 351.744-11.1616a254.208 254.208 0 0 1 9.6768 368.64l-303.2064 303.2064a81.92 81.92 0 0 1-58.2144 24.1664zM332.8 181.6064a208.0768 208.0768 0 0 0-147.1488 355.2256l303.2064 303.2064a36.1984 36.1984 0 0 0 51.2 0l303.2064-303.2064a208.128 208.128 0 0 0-7.936-301.824c-81.92-74.1888-209.1008-69.6832-289.024 10.24a45.1072 45.1072 0 0 1-63.6928 0l-2.7136-2.7136A206.7456 206.7456 0 0 0 332.8 181.6064z" fill="#707070" p-id="6413"></path><path d="M538.8288 751.5136a23.04 23.04 0 0 1-16.2816-39.3216l242.3296-242.3296A106.2912 106.2912 0 0 0 614.4 319.5392a23.04 23.04 0 0 1-32.4608-32.8192 152.3712 152.3712 0 1 1 215.5008 215.5008l-242.3296 242.3296a22.9376 22.9376 0 0 1-16.2816 6.9632z" fill="#707070" p-id="6414"></path></svg>