<?xml version="1.0" standalone="no"?><!DOCTYPE svg PUBLIC "-//W3C//DTD SVG 1.1//EN" "http://www.w3.org/Graphics/SVG/1.1/DTD/svg11.dtd"><svg t="1770454432463" class="icon" viewBox="0 0 1024 1024" version="1.1" xmlns="http://www.w3.org/2000/svg" p-id="7609" xmlns:xlink="http://www.w3.org/1999/xlink" width="128" height="128"><path d="M224 960c-6.4 0-12.8 0-19.2-6.4-6.4-6.4-12.8-12.8-12.8-25.6V832c-70.4 0-128-57.6-128-128V256c0-70.4 57.6-128 128-128h640c70.4 0 128 57.6 128 128v454.4c0 38.4-12.8 70.4-44.8 96-25.6 25.6-64 32-102.4 25.6h-76.8l-512 128c6.4 0 0 0 0 0zM192 192c-38.4 0-64 25.6-64 64v448c0 38.4 25.6 64 64 64h32c19.2 0 32 12.8 32 32v89.6l473.6-121.6H819.2c25.6 0 38.4 0 51.2-12.8 12.8-12.8 19.2-25.6 19.2-44.8V256c0-38.4-25.6-64-64-64H192z" fill="#707070" p-id="7610"></path></svg>