<?xml version="1.0" standalone="no"?><!DOCTYPE svg PUBLIC "-//W3C//DTD SVG 1.1//EN" "http://www.w3.org/Graphics/SVG/1.1/DTD/svg11.dtd"><svg t="1770454210438" class="icon" viewBox="0 0 1024 1024" version="1.1" xmlns="http://www.w3.org/2000/svg" p-id="4971" width="128" height="128" xmlns:xlink="http://www.w3.org/1999/xlink"><path d="M906.24 456.04l-61.06-55.47c-0.89-0.91-1.83-1.76-2.82-2.56L574.78 151.7c-0.28-0.26-0.57-0.51-0.86-0.75-35.8-30.26-87.77-30.27-123.57-0.02-0.29 0.24-0.58 0.49-0.86 0.75L117.77 456.04c-13.05 11.85-14.02 32.03-2.18 45.07 6.3 6.94 14.95 10.46 23.63 10.46 7.65 0 15.33-2.74 21.44-8.28l10.36-9.4V809.4c0 47.7 38.67 86.37 86.37 86.37h505.17c50.66 0 91.72-41.07 91.72-91.72v-309l9.06 8.23c13.04 11.85 33.22 10.88 45.07-2.16 11.84-13.05 10.88-33.23-2.17-45.08z m-331.41 375.9H450.98c0.08-0.95 0.14-1.91 0.14-2.88V643.43H574.7v185.63c-0.01 0.97 0.04 1.93 0.13 2.88z m215.63-31.91c0 17.59-10.31 31.91-27.91 31.91H638.37c0.08-0.95 0.14-1.91 0.14-2.88V611.52c0-17.62-14.29-31.91-31.91-31.91H419.2c-17.62 0-31.91 14.29-31.91 31.91v217.54c0 0.97 0.05 1.93 0.14 2.88H266.74c-17.59 0-31.91-14.31-31.91-31.91V435.94l257.06-236.57a31.815 31.815 0 0 1 40.46 0l258.1 237.7v362.96z" fill="#707070" p-id="4972"></path></svg>